<mxfile host="65bd71144e">
    <diagram id="sNALF_Tm8qJS5tfcBMum" name="Page-1">
        <mxGraphModel dx="1257" dy="1657" grid="1" gridSize="10" guides="1" tooltips="1" connect="1" arrows="1" fold="1" page="1" pageScale="1" pageWidth="827" pageHeight="1169" math="0" shadow="0">
            <root>
                <mxCell id="0"/>
                <mxCell id="1" parent="0"/>
                <mxCell id="_zTSM7bbzUTawt2C4xdx-9" value="" style="ellipse;shape=cloud;whiteSpace=wrap;html=1;labelBackgroundColor=#333333;labelBorderColor=none;fontSize=21;fontColor=#418FF9;strokeColor=default;fillColor=none;" parent="1" vertex="1">
                    <mxGeometry x="-200" y="-40" width="620" height="510" as="geometry"/>
                </mxCell>
                <mxCell id="_zTSM7bbzUTawt2C4xdx-1" value="&lt;pre style=&quot;font-family: &amp;#34;courier new&amp;#34; , monospace ; font-size: 10.5pt&quot;&gt;&lt;pre style=&quot;font-family: &amp;#34;courier new&amp;#34; , monospace ; font-size: 10.5pt&quot;&gt;&lt;span style=&quot;background-color: rgb(51 , 51 , 51) ; color: rgb(65 , 143 , 249)&quot;&gt;val &lt;/span&gt;&lt;span style=&quot;background-color: rgb(51 , 51 , 51)&quot;&gt;id: &lt;/span&gt;&lt;span style=&quot;background-color: rgb(51 , 51 , 51) ; color: rgb(123 , 134 , 226) ; font-weight: bold&quot;&gt;String&lt;/span&gt;&lt;span style=&quot;background-color: rgb(51 , 51 , 51) ; color: rgb(255 , 255 , 255) ; font-weight: bold&quot;&gt;,&lt;br&gt;&lt;/span&gt;&lt;span style=&quot;background-color: rgb(51 , 51 , 51) ; color: rgb(65 , 143 , 249)&quot;&gt;var &lt;/span&gt;&lt;span style=&quot;background-color: rgb(51 , 51 , 51)&quot;&gt;isWhitePlaying: &lt;/span&gt;&lt;span style=&quot;background-color: rgb(51 , 51 , 51) ; color: rgb(123 , 134 , 226) ; font-weight: bold&quot;&gt;Boolean&lt;/span&gt;&lt;span style=&quot;background-color: rgb(51 , 51 , 51) ; color: rgb(255 , 255 , 255) ; font-weight: bold&quot;&gt;,&lt;br&gt;&lt;/span&gt;&lt;span style=&quot;background-color: rgb(51 , 51 , 51) ; color: rgb(65 , 143 , 249)&quot;&gt;var &lt;/span&gt;&lt;span style=&quot;background-color: rgb(51 , 51 , 51)&quot;&gt;changedPos1: &lt;/span&gt;&lt;span style=&quot;background-color: rgb(51 , 51 , 51) ; color: rgb(123 , 134 , 226) ; font-weight: bold&quot;&gt;FireBasePiece&lt;/span&gt;&lt;span style=&quot;background-color: rgb(51 , 51 , 51) ; color: rgb(255 , 255 , 255) ; font-weight: bold&quot;&gt;,&lt;br&gt;&lt;/span&gt;&lt;span style=&quot;background-color: rgb(51 , 51 , 51) ; color: rgb(65 , 143 , 249)&quot;&gt;var &lt;/span&gt;&lt;span style=&quot;background-color: rgb(51 , 51 , 51)&quot;&gt;changedPos2: &lt;/span&gt;&lt;span style=&quot;background-color: rgb(51 , 51 , 51) ; color: rgb(123 , 134 , 226) ; font-weight: bold&quot;&gt;FireBasePiece&lt;/span&gt;&lt;font color=&quot;#ff6d00&quot;&gt;&lt;span style=&quot;background-color: rgb(51 , 51 , 51)&quot;&gt;,&lt;br&gt;&lt;/span&gt;&lt;/font&gt;&lt;font color=&quot;#418ff9&quot;&gt;var&lt;/font&gt; &lt;span style=&quot;color: rgb(240 , 240 , 240) ; font-family: &amp;#34;courier new&amp;#34; , monospace ; font-size: 10.5pt ; white-space: normal ; background-color: rgb(51 , 51 , 51)&quot;&gt;winnerColor: &lt;/span&gt;&lt;span style=&quot;font-family: &amp;#34;courier new&amp;#34; , monospace ; font-size: 10.5pt ; white-space: normal ; color: rgb(123 , 134 , 226) ; font-weight: bold&quot;&gt;Boolean&lt;/span&gt;&lt;span style=&quot;font-family: &amp;#34;courier new&amp;#34; , monospace ; font-size: 10.5pt ; white-space: normal ; color: rgb(255 , 109 , 0)&quot;&gt;?&lt;/span&gt;&lt;/pre&gt;&lt;/pre&gt;" style="rounded=0;whiteSpace=wrap;html=1;align=left;fillColor=#333333;fontColor=#ffffff;strokeColor=default;" parent="1" vertex="1">
                    <mxGeometry x="-70" y="185" width="290" height="120" as="geometry"/>
                </mxCell>
                <mxCell id="_zTSM7bbzUTawt2C4xdx-2" value="&lt;pre style=&quot;background-color: rgb(17 , 17 , 20) ; font-family: &amp;#34;courier new&amp;#34; , monospace&quot;&gt;&lt;span style=&quot;color: rgb(123 , 134 , 226) ; font-weight: bold&quot;&gt;&lt;font style=&quot;font-size: 21px&quot;&gt;GameState&lt;/font&gt;&lt;/span&gt;&lt;/pre&gt;" style="text;html=1;strokeColor=default;fillColor=none;align=center;verticalAlign=middle;whiteSpace=wrap;rounded=0;" parent="1" vertex="1">
                    <mxGeometry x="-20" y="135" width="190" height="50" as="geometry"/>
                </mxCell>
                <mxCell id="_zTSM7bbzUTawt2C4xdx-4" value="&lt;pre style=&quot;font-family: &amp;#34;courier new&amp;#34; , monospace ; font-size: 10.5pt&quot;&gt;&lt;pre style=&quot;font-family: &amp;#34;courier new&amp;#34; , monospace ; font-size: 10.5pt&quot;&gt;&lt;br&gt;&lt;/pre&gt;&lt;/pre&gt;" style="text;html=1;strokeColor=none;fillColor=none;align=center;verticalAlign=middle;whiteSpace=wrap;rounded=0;labelBackgroundColor=none;labelBorderColor=none;" parent="1" vertex="1">
                    <mxGeometry x="710" y="410" width="240" height="50" as="geometry"/>
                </mxCell>
                <mxCell id="_zTSM7bbzUTawt2C4xdx-7" value="ChessGameActivity (User 2)" style="swimlane;labelBackgroundColor=none;labelBorderColor=none;strokeColor=default;fillColor=none;" parent="1" vertex="1">
                    <mxGeometry x="1100" y="310" width="450" height="220" as="geometry">
                        <mxRectangle x="480" y="340" width="150" height="23" as="alternateBounds"/>
                    </mxGeometry>
                </mxCell>
                <mxCell id="aQS7cwiyeNNMY127UDI2-1" value="&lt;pre style=&quot;font-family: &amp;#34;courier new&amp;#34; , monospace ; font-size: 10.5pt&quot;&gt;&lt;pre style=&quot;font-family: &amp;#34;courier new&amp;#34; , monospace ; font-size: 10.5pt&quot;&gt;&lt;span style=&quot;background-color: rgb(0 , 0 , 0)&quot;&gt;&lt;span style=&quot;color: rgb(65 , 143 , 249)&quot;&gt;var &lt;/span&gt;&lt;font color=&quot;#f0f0f0&quot;&gt;myColor: &lt;/font&gt;&lt;span style=&quot;color: rgb(123 , 134 , 226) ; font-weight: bold&quot;&gt;Boolean &lt;/span&gt;&lt;span style=&quot;color: rgb(251 , 252 , 208) ; font-weight: bold&quot;&gt;= &lt;/span&gt;&lt;font color=&quot;#eef2cc&quot;&gt;&lt;b&gt;intentIsWhitesPlayer&lt;br&gt;&lt;/b&gt;&lt;/font&gt;&lt;font color=&quot;#f0f0f0&quot;&gt;var &lt;/font&gt;&lt;font color=&quot;#f0f0f0&quot; style=&quot;color: rgb(240 , 240 , 240) ; font-family: &amp;#34;courier new&amp;#34; , monospace ; font-size: 10.5pt ; white-space: normal&quot;&gt;winnerColor: &lt;/font&gt;&lt;span style=&quot;color: rgb(123 , 134 , 226) ; font-family: &amp;#34;courier new&amp;#34; , monospace ; font-size: 10.5pt ; white-space: normal ; font-weight: bold&quot;&gt;Boolean&lt;/span&gt;&lt;font style=&quot;font-family: &amp;#34;courier new&amp;#34; , monospace ; font-size: 10.5pt ; white-space: normal&quot;&gt;&lt;font color=&quot;#f0f0f0&quot;&gt;?&lt;br&gt;&lt;/font&gt;&lt;/font&gt;&lt;font color=&quot;#418ff9&quot; style=&quot;font-size: 10.5pt ; white-space: normal&quot;&gt;var &lt;/font&gt;&lt;span style=&quot;font-size: 10.5pt ; white-space: normal ; color: rgb(240 , 240 , 240)&quot;&gt;isWhitesPlaying: &lt;/span&gt;&lt;span style=&quot;font-size: 10.5pt ; white-space: normal ; color: rgb(123 , 134 , 226) ; font-weight: bold&quot;&gt;MutableLiveData&lt;/span&gt;&lt;span style=&quot;font-size: 10.5pt ; white-space: normal ; color: rgb(251 , 252 , 208) ; font-weight: bold&quot;&gt;&amp;lt;&lt;/span&gt;&lt;span style=&quot;font-size: 10.5pt ; white-space: normal ; color: rgb(123 , 134 , 226) ; font-weight: bold&quot;&gt;Boolean&lt;/span&gt;&lt;span style=&quot;font-size: 10.5pt ; white-space: normal&quot;&gt;&lt;font color=&quot;#fbfcd0&quot;&gt;&lt;b&gt;&amp;gt;&lt;br&gt;&lt;/b&gt;&lt;/font&gt;&lt;/span&gt;&lt;font color=&quot;#418ff9&quot; style=&quot;font-size: 10.5pt ; white-space: normal&quot;&gt;var &lt;/font&gt;&lt;span style=&quot;font-size: 10.5pt ; white-space: normal ; color: rgb(240 , 240 , 240)&quot;&gt;board: &lt;/span&gt;&lt;span style=&quot;font-size: 10.5pt ; white-space: normal&quot;&gt;&lt;font color=&quot;#7b86e2&quot;&gt;&lt;b&gt;Board&lt;br&gt;&lt;/b&gt;&lt;/font&gt;&lt;/span&gt;&lt;font color=&quot;#ffffff&quot; style=&quot;font-size: 10.5pt ; white-space: normal&quot;&gt;_game:&lt;/font&gt;&lt;span style=&quot;font-size: 10.5pt ; white-space: normal&quot;&gt; &lt;/span&gt;&lt;span style=&quot;font-size: 10.5pt ; white-space: normal ; color: rgb(123 , 134 , 226) ; font-weight: bold&quot;&gt;MutableLiveData&lt;/span&gt;&lt;span style=&quot;font-size: 10.5pt ; white-space: normal ; color: rgb(251 , 252 , 208) ; font-weight: bold&quot;&gt;&amp;lt;&lt;/span&gt;&lt;span style=&quot;font-size: 10.5pt ; white-space: normal ; color: rgb(123 , 134 , 226) ; font-weight: bold&quot;&gt;Result&lt;/span&gt;&lt;span style=&quot;font-size: 10.5pt ; white-space: normal ; color: rgb(251 , 252 , 208) ; font-weight: bold&quot;&gt;&amp;lt;&lt;/span&gt;&lt;span style=&quot;font-size: 10.5pt ; white-space: normal ; color: rgb(123 , 134 , 226) ; font-weight: bold&quot;&gt;GameState&lt;/span&gt;&lt;span style=&quot;font-size: 10.5pt ; white-space: normal ; color: rgb(251 , 252 , 208) ; font-weight: bold&quot;&gt;&amp;gt;&amp;gt;&lt;/span&gt;&lt;/span&gt;&lt;/pre&gt;&lt;/pre&gt;" style="rounded=1;whiteSpace=wrap;html=1;labelBackgroundColor=#333333;labelBorderColor=none;fontSize=33;" parent="_zTSM7bbzUTawt2C4xdx-7" vertex="1">
                    <mxGeometry x="13" y="40" width="424" height="120" as="geometry"/>
                </mxCell>
                <mxCell id="_zTSM7bbzUTawt2C4xdx-8" value="ChessGameActivity (User1)" style="swimlane;labelBackgroundColor=none;labelBorderColor=none;strokeColor=default;fillColor=none;" parent="1" vertex="1">
                    <mxGeometry x="1110" y="-60" width="450" height="220" as="geometry">
                        <mxRectangle x="480" y="340" width="150" height="23" as="alternateBounds"/>
                    </mxGeometry>
                </mxCell>
                <mxCell id="_zTSM7bbzUTawt2C4xdx-12" value="&lt;pre style=&quot;font-family: &amp;#34;courier new&amp;#34; , monospace ; font-size: 10.5pt&quot;&gt;&lt;pre style=&quot;font-family: &amp;#34;courier new&amp;#34; , monospace ; font-size: 10.5pt&quot;&gt;&lt;span style=&quot;background-color: rgb(0 , 0 , 0)&quot;&gt;&lt;span style=&quot;color: rgb(65 , 143 , 249)&quot;&gt;var &lt;/span&gt;&lt;font color=&quot;#f0f0f0&quot;&gt;myColor: &lt;/font&gt;&lt;span style=&quot;color: rgb(123 , 134 , 226) ; font-weight: bold&quot;&gt;Boolean &lt;/span&gt;&lt;span style=&quot;color: rgb(251 , 252 , 208) ; font-weight: bold&quot;&gt;= &lt;/span&gt;&lt;font color=&quot;#eef2cc&quot;&gt;&lt;b&gt;intentIsWhitesPlayer&lt;br&gt;&lt;/b&gt;&lt;/font&gt;&lt;font color=&quot;#f0f0f0&quot;&gt;var &lt;/font&gt;&lt;font color=&quot;#f0f0f0&quot; style=&quot;color: rgb(240 , 240 , 240) ; font-family: &amp;#34;courier new&amp;#34; , monospace ; font-size: 10.5pt ; white-space: normal&quot;&gt;winnerColor: &lt;/font&gt;&lt;span style=&quot;color: rgb(123 , 134 , 226) ; font-family: &amp;#34;courier new&amp;#34; , monospace ; font-size: 10.5pt ; white-space: normal ; font-weight: bold&quot;&gt;Boolean&lt;/span&gt;&lt;font style=&quot;font-family: &amp;#34;courier new&amp;#34; , monospace ; font-size: 10.5pt ; white-space: normal&quot;&gt;&lt;font color=&quot;#f0f0f0&quot;&gt;?&lt;br&gt;&lt;/font&gt;&lt;/font&gt;&lt;font color=&quot;#418ff9&quot; style=&quot;font-size: 10.5pt ; white-space: normal&quot;&gt;var &lt;/font&gt;&lt;span style=&quot;font-size: 10.5pt ; white-space: normal ; color: rgb(240 , 240 , 240)&quot;&gt;isWhitesPlaying: &lt;/span&gt;&lt;span style=&quot;font-size: 10.5pt ; white-space: normal ; color: rgb(123 , 134 , 226) ; font-weight: bold&quot;&gt;MutableLiveData&lt;/span&gt;&lt;span style=&quot;font-size: 10.5pt ; white-space: normal ; color: rgb(251 , 252 , 208) ; font-weight: bold&quot;&gt;&amp;lt;&lt;/span&gt;&lt;span style=&quot;font-size: 10.5pt ; white-space: normal ; color: rgb(123 , 134 , 226) ; font-weight: bold&quot;&gt;Boolean&lt;/span&gt;&lt;span style=&quot;font-size: 10.5pt ; white-space: normal&quot;&gt;&lt;font color=&quot;#fbfcd0&quot;&gt;&lt;b&gt;&amp;gt;&lt;br&gt;&lt;/b&gt;&lt;/font&gt;&lt;/span&gt;&lt;font color=&quot;#418ff9&quot; style=&quot;font-size: 10.5pt ; white-space: normal&quot;&gt;var &lt;/font&gt;&lt;span style=&quot;font-size: 10.5pt ; white-space: normal ; color: rgb(240 , 240 , 240)&quot;&gt;board: &lt;/span&gt;&lt;span style=&quot;font-size: 10.5pt ; white-space: normal&quot;&gt;&lt;font color=&quot;#7b86e2&quot;&gt;&lt;b&gt;Board&lt;br&gt;&lt;/b&gt;&lt;/font&gt;&lt;/span&gt;&lt;font color=&quot;#ffffff&quot; style=&quot;font-size: 10.5pt ; white-space: normal&quot;&gt;_game:&lt;/font&gt;&lt;span style=&quot;font-size: 10.5pt ; white-space: normal&quot;&gt; &lt;/span&gt;&lt;span style=&quot;font-size: 10.5pt ; white-space: normal ; color: rgb(123 , 134 , 226) ; font-weight: bold&quot;&gt;MutableLiveData&lt;/span&gt;&lt;span style=&quot;font-size: 10.5pt ; white-space: normal ; color: rgb(251 , 252 , 208) ; font-weight: bold&quot;&gt;&amp;lt;&lt;/span&gt;&lt;span style=&quot;font-size: 10.5pt ; white-space: normal ; color: rgb(123 , 134 , 226) ; font-weight: bold&quot;&gt;Result&lt;/span&gt;&lt;span style=&quot;font-size: 10.5pt ; white-space: normal ; color: rgb(251 , 252 , 208) ; font-weight: bold&quot;&gt;&amp;lt;&lt;/span&gt;&lt;span style=&quot;font-size: 10.5pt ; white-space: normal ; color: rgb(123 , 134 , 226) ; font-weight: bold&quot;&gt;GameState&lt;/span&gt;&lt;span style=&quot;font-size: 10.5pt ; white-space: normal ; color: rgb(251 , 252 , 208) ; font-weight: bold&quot;&gt;&amp;gt;&amp;gt;&lt;/span&gt;&lt;/span&gt;&lt;/pre&gt;&lt;/pre&gt;" style="rounded=1;whiteSpace=wrap;html=1;labelBackgroundColor=#333333;labelBorderColor=none;fontSize=33;" parent="_zTSM7bbzUTawt2C4xdx-8" vertex="1">
                    <mxGeometry x="10" y="50" width="424" height="120" as="geometry"/>
                </mxCell>
                <mxCell id="_zTSM7bbzUTawt2C4xdx-10" value="&lt;font color=&quot;#cc6600&quot; style=&quot;font-size: 33px;&quot;&gt;FireBase&lt;/font&gt;" style="text;html=1;strokeColor=none;fillColor=none;align=center;verticalAlign=middle;whiteSpace=wrap;rounded=0;labelBackgroundColor=#333333;labelBorderColor=none;fontSize=33;fontColor=#418FF9;" parent="1" vertex="1">
                    <mxGeometry x="-30" y="40" width="195" height="80" as="geometry"/>
                </mxCell>
                <mxCell id="R4zpQLSBuNDVyra0pJaq-9" style="edgeStyle=orthogonalEdgeStyle;rounded=0;orthogonalLoop=1;jettySize=auto;html=1;entryX=1;entryY=0.5;entryDx=0;entryDy=0;" parent="1" source="R4zpQLSBuNDVyra0pJaq-5" target="_zTSM7bbzUTawt2C4xdx-2" edge="1">
                    <mxGeometry relative="1" as="geometry"/>
                </mxCell>
                <mxCell id="R4zpQLSBuNDVyra0pJaq-12" style="edgeStyle=none;rounded=0;orthogonalLoop=1;jettySize=auto;html=1;exitX=1;exitY=0.5;exitDx=0;exitDy=0;startArrow=none;startFill=0;endArrow=classic;endFill=1;" parent="1" source="R4zpQLSBuNDVyra0pJaq-5" edge="1">
                    <mxGeometry relative="1" as="geometry">
                        <mxPoint x="440" y="80" as="targetPoint"/>
                    </mxGeometry>
                </mxCell>
                <mxCell id="R4zpQLSBuNDVyra0pJaq-5" value="If changed" style="rhombus;whiteSpace=wrap;html=1;labelBackgroundColor=#1A1A1A;" parent="1" vertex="1">
                    <mxGeometry x="240" y="120" width="80" height="80" as="geometry"/>
                </mxCell>
                <mxCell id="sqKFQXC07bvYtb8bKCfH-3" style="edgeStyle=orthogonalEdgeStyle;rounded=0;orthogonalLoop=1;jettySize=auto;html=1;entryX=0;entryY=0.5;entryDx=0;entryDy=0;entryPerimeter=0;" parent="1" source="R4zpQLSBuNDVyra0pJaq-10" target="R4zpQLSBuNDVyra0pJaq-33" edge="1">
                    <mxGeometry relative="1" as="geometry"/>
                </mxCell>
                <mxCell id="sqKFQXC07bvYtb8bKCfH-4" style="edgeStyle=orthogonalEdgeStyle;rounded=0;orthogonalLoop=1;jettySize=auto;html=1;entryX=0;entryY=0.5;entryDx=0;entryDy=0;entryPerimeter=0;" parent="1" source="R4zpQLSBuNDVyra0pJaq-10" target="R4zpQLSBuNDVyra0pJaq-27" edge="1">
                    <mxGeometry relative="1" as="geometry"/>
                </mxCell>
                <mxCell id="R4zpQLSBuNDVyra0pJaq-10" value="&lt;pre style=&quot;background-color: rgb(17 , 17 , 20) ; font-family: &amp;#34;courier new&amp;#34; , monospace ; font-size: 10.5pt&quot;&gt;&lt;span style=&quot;color: #a27aff&quot;&gt;onGameStateChange&lt;/span&gt;&lt;/pre&gt;" style="text;html=1;strokeColor=none;fillColor=none;align=center;verticalAlign=middle;whiteSpace=wrap;rounded=0;labelBackgroundColor=#1A1A1A;" parent="1" vertex="1">
                    <mxGeometry x="400" y="40" width="120" height="20" as="geometry"/>
                </mxCell>
                <mxCell id="sqKFQXC07bvYtb8bKCfH-6" style="rounded=0;orthogonalLoop=1;jettySize=auto;html=1;entryX=1;entryY=1;entryDx=0;entryDy=0;entryPerimeter=0;exitX=1;exitY=0.5;exitDx=0;exitDy=0;exitPerimeter=0;" parent="1" source="R4zpQLSBuNDVyra0pJaq-21" target="sqKFQXC07bvYtb8bKCfH-5" edge="1">
                    <mxGeometry relative="1" as="geometry"/>
                </mxCell>
                <mxCell id="R4zpQLSBuNDVyra0pJaq-21" value="" style="shape=singleArrow;direction=west;whiteSpace=wrap;html=1;labelBackgroundColor=none;fillColor=none;" parent="1" vertex="1">
                    <mxGeometry x="660" y="310" width="300" height="80" as="geometry"/>
                </mxCell>
                <mxCell id="sqKFQXC07bvYtb8bKCfH-1" style="edgeStyle=orthogonalEdgeStyle;rounded=0;orthogonalLoop=1;jettySize=auto;html=1;entryX=0;entryY=0.5;entryDx=0;entryDy=0;entryPerimeter=0;" parent="1" source="R4zpQLSBuNDVyra0pJaq-23" target="R4zpQLSBuNDVyra0pJaq-32" edge="1">
                    <mxGeometry relative="1" as="geometry"/>
                </mxCell>
                <mxCell id="sqKFQXC07bvYtb8bKCfH-2" style="edgeStyle=orthogonalEdgeStyle;rounded=0;orthogonalLoop=1;jettySize=auto;html=1;entryX=0;entryY=0.5;entryDx=0;entryDy=0;entryPerimeter=0;" parent="1" source="R4zpQLSBuNDVyra0pJaq-23" target="R4zpQLSBuNDVyra0pJaq-21" edge="1">
                    <mxGeometry relative="1" as="geometry"/>
                </mxCell>
                <mxCell id="R4zpQLSBuNDVyra0pJaq-23" value="&lt;pre style=&quot;background-color: #111114 ; color: #f0f0f0 ; font-family: &amp;quot;courier new&amp;quot; , monospace ; font-size: 10.5pt&quot;&gt;&lt;span style=&quot;color: #acedf9 ; font-weight: bold&quot;&gt;publishGameStateChangesToFireBase&lt;/span&gt;&lt;span style=&quot;color: #7ff261 ; font-weight: bold&quot;&gt;()&lt;/span&gt;&lt;/pre&gt;" style="text;whiteSpace=wrap;html=1;rotation=0;" parent="1" vertex="1">
                    <mxGeometry x="1110" y="210" width="210" height="60" as="geometry"/>
                </mxCell>
                <mxCell id="R4zpQLSBuNDVyra0pJaq-27" value="" style="shape=singleArrow;direction=west;whiteSpace=wrap;html=1;labelBackgroundColor=none;fillColor=none;rotation=-180;" parent="1" vertex="1">
                    <mxGeometry x="660" y="390" width="440" height="80" as="geometry"/>
                </mxCell>
                <mxCell id="R4zpQLSBuNDVyra0pJaq-31" value="&lt;pre style=&quot;font-family: &amp;#34;courier new&amp;#34; , monospace ; font-size: 10.5pt&quot;&gt;&lt;pre style=&quot;font-family: &amp;#34;courier new&amp;#34; , monospace ; font-size: 10.5pt&quot;&gt;&lt;br&gt;&lt;/pre&gt;&lt;/pre&gt;" style="text;html=1;strokeColor=none;fillColor=none;align=center;verticalAlign=middle;whiteSpace=wrap;rounded=0;labelBackgroundColor=none;labelBorderColor=none;" parent="1" vertex="1">
                    <mxGeometry x="710" y="180" width="240" height="50" as="geometry"/>
                </mxCell>
                <mxCell id="sqKFQXC07bvYtb8bKCfH-7" style="edgeStyle=none;rounded=0;orthogonalLoop=1;jettySize=auto;html=1;entryX=1;entryY=0;entryDx=0;entryDy=0;entryPerimeter=0;exitX=1;exitY=0.5;exitDx=0;exitDy=0;exitPerimeter=0;" parent="1" source="R4zpQLSBuNDVyra0pJaq-32" target="sqKFQXC07bvYtb8bKCfH-5" edge="1">
                    <mxGeometry relative="1" as="geometry"/>
                </mxCell>
                <mxCell id="R4zpQLSBuNDVyra0pJaq-32" value="" style="shape=singleArrow;direction=west;whiteSpace=wrap;html=1;labelBackgroundColor=none;fillColor=none;" parent="1" vertex="1">
                    <mxGeometry x="660" y="100" width="300" height="80" as="geometry"/>
                </mxCell>
                <mxCell id="R4zpQLSBuNDVyra0pJaq-33" value="" style="shape=singleArrow;direction=west;whiteSpace=wrap;html=1;labelBackgroundColor=none;fillColor=none;rotation=-180;" parent="1" vertex="1">
                    <mxGeometry x="660" y="10" width="450" height="80" as="geometry"/>
                </mxCell>
                <mxCell id="sqKFQXC07bvYtb8bKCfH-5" value="" style="strokeWidth=2;html=1;shape=mxgraph.flowchart.annotation_2;align=left;labelPosition=right;pointerEvents=1;" parent="1" vertex="1">
                    <mxGeometry x="220" y="220" width="200" height="80" as="geometry"/>
                </mxCell>
                <mxCell id="sqKFQXC07bvYtb8bKCfH-8" value="If, I caused&lt;br&gt;these changes, ignore changedPos1 and changedPos2, either way switch the isWhitesPlaying" style="text;html=1;strokeColor=none;fillColor=none;align=center;verticalAlign=middle;whiteSpace=wrap;rounded=0;" parent="1" vertex="1">
                    <mxGeometry x="540" y="-90" width="150" height="130" as="geometry"/>
                </mxCell>
            </root>
        </mxGraphModel>
    </diagram>
</mxfile>